<svg width="180" height="180" viewBox="0 0 180 180" fill="none" xmlns="http://www.w3.org/2000/svg">
<rect width="180" height="180" fill="#DADADA"/>
<path d="M51.385 109.998H43.731L45.1027 102.581L51.6867 102.636C53.6254 102.654 55.1251 102.196 56.1858 101.262C57.2466 100.328 58.0238 99.1192 58.5177 97.6358C59.0297 96.1524 59.4047 94.5957 59.6425 92.9658L60.4929 86.8672C60.6392 85.9698 60.749 84.99 60.8222 83.9278C60.9136 82.8656 60.8862 81.8583 60.7398 80.906C60.5935 79.9353 60.2186 79.1387 59.615 78.516C59.0297 77.875 58.1062 77.5271 56.8443 77.4721L49.2451 77.4446L50.5345 70L57.1734 70.0275C59.5328 70.0824 61.572 70.5769 63.2911 71.5109C65.0287 72.4266 66.4187 73.672 67.4611 75.247C68.5218 76.822 69.2442 78.6076 69.6283 80.6038C70.0308 82.6 70.0946 84.697 69.8204 86.8947L68.9425 93.0208C68.6132 95.3831 67.9915 97.5992 67.077 99.6687C66.1625 101.738 64.9646 103.551 63.4832 105.108C62.0019 106.665 60.2461 107.883 58.216 108.762C56.1858 109.622 53.9089 110.034 51.385 109.998ZM56.0487 70L49.108 109.998H40L46.8858 70H56.0487ZM75.2819 70L88.0658 70.0275C90.4252 70.0824 92.4553 70.5952 94.1562 71.5659C95.8754 72.5182 97.1647 73.8734 98.0243 75.6315C98.8839 77.3714 99.2315 79.4409 99.0669 81.84C98.9204 83.8729 98.5365 85.6493 97.9145 87.1694C97.2928 88.6894 96.3875 90.0172 95.1986 91.1527C94.0281 92.2699 92.5467 93.2587 90.7544 94.1195L87.4624 95.8777H76.5987L77.8332 88.4331L84.7465 88.5154C85.8805 88.4788 86.7948 88.1949 87.4898 87.6638C88.1848 87.1144 88.7151 86.4093 89.0809 85.5486C89.4469 84.6695 89.6845 83.7263 89.7943 82.7191C89.904 82.0414 89.9862 81.3089 90.0411 80.5214C90.096 79.7156 89.9681 79.0288 89.6572 78.4611C89.3461 77.875 88.7151 77.5454 87.7641 77.4721L83.1827 77.4446L77.504 109.998H68.396L75.2819 70ZM85.734 109.998L81.9482 92.3064L91.2208 92.2515L95.5278 109.531V109.998H85.734ZM108.616 70H115.776L117.011 97.7457L127.902 70H135.556L118.218 109.998H112.155L108.616 70ZM103.925 70H111.606L107.683 101.07L106.147 109.998H97.0115L103.925 70ZM132.264 70H140L133.087 109.998H123.869L125.597 100.273L132.264 70Z" fill="white"/>
</svg>
