<svg width="320" height="180" viewBox="0 0 320 180" fill="none" xmlns="http://www.w3.org/2000/svg">
<rect width="320" height="180" fill="#DADADA"/>
<path d="M121.385 109.998H113.731L115.103 102.581L121.687 102.636C123.625 102.654 125.125 102.196 126.186 101.262C127.247 100.328 128.024 99.1192 128.518 97.6358C129.03 96.1524 129.405 94.5957 129.643 92.9658L130.493 86.8672C130.639 85.9698 130.749 84.99 130.822 83.9278C130.914 82.8656 130.886 81.8583 130.74 80.906C130.594 79.9353 130.219 79.1387 129.615 78.516C129.03 77.875 128.106 77.5271 126.844 77.4721L119.245 77.4446L120.535 70L127.173 70.0275C129.533 70.0824 131.572 70.5769 133.291 71.5109C135.029 72.4266 136.419 73.672 137.461 75.247C138.522 76.822 139.244 78.6076 139.628 80.6038C140.031 82.6 140.095 84.697 139.82 86.8947L138.942 93.0208C138.613 95.3831 137.991 97.5992 137.077 99.6687C136.162 101.738 134.965 103.551 133.483 105.108C132.002 106.665 130.246 107.883 128.216 108.762C126.186 109.622 123.909 110.034 121.385 109.998ZM126.049 70L119.108 109.998H110L116.886 70H126.049ZM145.282 70L158.066 70.0275C160.425 70.0824 162.455 70.5952 164.156 71.5659C165.875 72.5182 167.165 73.8734 168.024 75.6315C168.884 77.3714 169.232 79.4409 169.067 81.84C168.92 83.8729 168.537 85.6493 167.915 87.1694C167.293 88.6894 166.387 90.0172 165.199 91.1527C164.028 92.2699 162.547 93.2587 160.754 94.1195L157.462 95.8777H146.599L147.833 88.4331L154.746 88.5154C155.88 88.4788 156.795 88.1949 157.49 87.6638C158.185 87.1144 158.715 86.4093 159.081 85.5486C159.447 84.6695 159.685 83.7263 159.794 82.7191C159.904 82.0414 159.986 81.3089 160.041 80.5214C160.096 79.7156 159.968 79.0288 159.657 78.4611C159.346 77.875 158.715 77.5454 157.764 77.4721L153.183 77.4446L147.504 109.998H138.396L145.282 70ZM155.734 109.998L151.948 92.3064L161.221 92.2515L165.528 109.531V109.998H155.734ZM178.616 70H185.776L187.011 97.7457L197.902 70H205.556L188.218 109.998H182.155L178.616 70ZM173.925 70H181.606L177.683 101.07L176.147 109.998H167.011L173.925 70ZM202.264 70H210L203.087 109.998H193.869L195.597 100.273L202.264 70Z" fill="white"/>
</svg>
