<svg width="40" height="43" viewBox="0 0 40 43" fill="none" xmlns="http://www.w3.org/2000/svg">
<path d="M27.4817 6.9397C24.2937 5.09915 20.5052 4.60038 16.9496 5.55312C13.3939 6.50586 10.3624 8.83205 8.52182 12.02C6.68127 15.2079 6.18251 18.9964 7.13524 22.5521C8.08798 26.1077 10.4142 29.1393 13.6021 30.9798L20.5419 18.9598L27.4817 6.9397Z" fill="#4200FF"/>
<path d="M12.0203 36.0601C15.2082 37.9006 18.9967 38.3994 22.5524 37.4466C26.108 36.4939 29.1396 34.1677 30.9801 30.9798C32.8207 27.7919 33.3194 24.0034 32.3667 20.4477C31.414 16.892 29.0878 13.8605 25.8999 12.0199L18.9601 24.04L12.0203 36.0601Z" fill="#4200FF"/>
</svg>
