<svg width="50" height="20" viewBox="0 0 50 20" fill="none" xmlns="http://www.w3.org/2000/svg">
<path d="M5.69248 19.9989H1.86549L2.55133 16.2903L5.84337 16.3178C6.81269 16.3269 7.56254 16.098 8.09292 15.631C8.62331 15.164 9.01192 14.5596 9.25885 13.8179C9.51486 13.0762 9.70233 12.2978 9.82125 11.4829L10.2465 8.4336C10.3196 7.9849 10.3745 7.495 10.4111 6.96389C10.4568 6.43279 10.4431 5.92916 10.3699 5.45299C10.2968 4.96767 10.1093 4.56934 9.80748 4.258C9.51486 3.93751 9.05312 3.76353 8.42213 3.73605L4.62257 3.72232L5.26726 0L8.5867 0.0137351C9.76638 0.0412062 10.786 0.288445 11.6455 0.755453C12.5143 1.2133 13.2093 1.83598 13.7305 2.62348C14.2609 3.41098 14.6221 4.30379 14.8141 5.3019C15.0154 6.30001 15.0473 7.34849 14.9102 8.44733L14.4712 11.5104C14.3066 12.6916 13.9957 13.7996 13.5385 14.8343C13.0812 15.8691 12.4823 16.7756 11.7416 17.554C11.0009 18.3323 10.1231 18.9413 9.10799 19.3808C8.09292 19.8112 6.95443 20.0172 5.69248 19.9989ZM8.02434 0L4.55398 19.9989H0L3.44292 0H8.02434ZM17.641 0L24.0329 0.0137351C25.2126 0.0412062 26.2277 0.297603 27.0781 0.782927C27.9377 1.25909 28.5823 1.9367 29.0121 2.81577C29.442 3.68569 29.6158 4.72043 29.5334 5.92C29.4602 6.93643 29.2683 7.82465 28.9573 8.58469C28.6464 9.34472 28.1937 10.0086 27.5993 10.5764C27.0141 11.1349 26.2734 11.6294 25.3772 12.0598L23.7312 12.9388H18.2993L18.9166 9.21654L22.3732 9.2577C22.9402 9.23942 23.3974 9.09746 23.7449 8.83191C24.0924 8.55721 24.3576 8.20467 24.5405 7.77429C24.7234 7.33475 24.8423 6.86317 24.8971 6.35953C24.952 6.02072 24.9931 5.65445 25.0205 5.2607C25.048 4.85779 24.984 4.5144 24.8286 4.23053C24.673 3.93751 24.3576 3.77268 23.8821 3.73605L21.5914 3.72232L18.752 19.9989H14.198L17.641 0ZM22.867 19.9989L20.9741 11.1532L25.6104 11.1257L27.7639 19.7654V19.9989H22.867ZM34.308 0H37.888L38.5053 13.8729L43.9509 0H47.7779L39.1089 19.9989H36.0774L34.308 0ZM31.9624 0H35.8031L33.8416 15.5349L33.0734 19.9989H28.5057L31.9624 0ZM46.1319 0H50L46.5434 19.9989H41.9345L42.7987 15.1366L46.1319 0Z" fill="white"/>
</svg>
