<svg width="16" height="16" viewBox="0 0 16 16" fill="none" xmlns="http://www.w3.org/2000/svg">
<g id="account-multiple">
<path id="Vector" d="M10.6663 11.3332V12.6665H1.33301V11.3332C1.33301 11.3332 1.33301 8.66654 5.99967 8.66654C10.6663 8.66654 10.6663 11.3332 10.6663 11.3332ZM8.33301 4.99987C8.33301 4.53838 8.19616 4.08726 7.93977 3.70354C7.68338 3.31983 7.31896 3.02076 6.8926 2.84415C6.46624 2.66755 5.99709 2.62134 5.54446 2.71137C5.09184 2.80141 4.67608 3.02363 4.34976 3.34996C4.02344 3.67628 3.80121 4.09204 3.71118 4.54466C3.62114 4.99728 3.66735 5.46644 3.84396 5.8928C4.02056 6.31916 4.31963 6.68358 4.70334 6.93997C5.08706 7.19636 5.53818 7.33321 5.99967 7.33321C6.61851 7.33321 7.21201 7.08737 7.64959 6.64979C8.08717 6.2122 8.33301 5.61871 8.33301 4.99987ZM10.6263 8.66654C11.0362 8.9837 11.3715 9.38683 11.6088 9.84754C11.8461 10.3083 11.9795 10.8154 11.9997 11.3332V12.6665H14.6663V11.3332C14.6663 11.3332 14.6663 8.91321 10.6263 8.66654ZM9.99967 2.66654C9.5408 2.66398 9.09202 2.80118 8.71301 3.05987C9.11797 3.6257 9.33571 4.30406 9.33571 4.99987C9.33571 5.69568 9.11797 6.37405 8.71301 6.93987C9.09202 7.19857 9.5408 7.33576 9.99967 7.33321C10.6185 7.33321 11.212 7.08737 11.6496 6.64979C12.0872 6.2122 12.333 5.61871 12.333 4.99987C12.333 4.38103 12.0872 3.78754 11.6496 3.34996C11.212 2.91237 10.6185 2.66654 9.99967 2.66654Z" fill="black"/>
</g>
</svg>
