<svg width="24" height="24" viewBox="0 0 24 24" fill="none" xmlns="http://www.w3.org/2000/svg">
<g id="eye-outline" clip-path="url(#clip0_588_5402)">
<path id="Vector" d="M12.7333 9.3C13.582 9.3 14.396 9.63714 14.9961 10.2373C15.5962 10.8374 15.9333 11.6513 15.9333 12.5C15.9333 13.3487 15.5962 14.1626 14.9961 14.7627C14.396 15.3629 13.582 15.7 12.7333 15.7C11.8846 15.7 11.0707 15.3629 10.4706 14.7627C9.87047 14.1626 9.53333 13.3487 9.53333 12.5C9.53333 11.6513 9.87047 10.8374 10.4706 10.2373C11.0707 9.63714 11.8846 9.3 12.7333 9.3ZM12.7333 4.5C18.0667 4.5 22.6213 7.81733 24.4667 12.5C22.6213 17.1827 18.0667 20.5 12.7333 20.5C7.4 20.5 2.84533 17.1827 1 12.5C2.84533 7.81733 7.4 4.5 12.7333 4.5ZM3.32533 12.5C5.08533 16.084 8.72267 18.3667 12.7333 18.3667C16.744 18.3667 20.3813 16.084 22.1413 12.5C20.3813 8.916 16.744 6.63333 12.7333 6.63333C8.72267 6.63333 5.08533 8.916 3.32533 12.5Z" fill="black"/>
</g>
<defs>
<clipPath id="clip0_588_5402">
<rect width="24" height="24" fill="white"/>
</clipPath>
</defs>
</svg>
