<svg width="57" height="58" viewBox="0 0 57 58" fill="none" xmlns="http://www.w3.org/2000/svg">
<g id="face-man">
<path id="Vector" d="M21.375 28.396C20.5876 28.396 19.8325 28.7143 19.2758 29.2808C18.719 29.8473 18.4062 30.6157 18.4062 31.4168C18.4062 32.218 18.719 32.9864 19.2758 33.5529C19.8325 34.1194 20.5876 34.4377 21.375 34.4377C21.7649 34.4377 22.1509 34.3595 22.5111 34.2077C22.8713 34.0559 23.1985 33.8334 23.4742 33.5529C23.7499 33.2724 23.9686 32.9394 24.1178 32.5729C24.267 32.2063 24.3438 31.8135 24.3438 31.4168C24.3438 31.0201 24.267 30.6273 24.1178 30.2608C23.9686 29.8943 23.7499 29.5613 23.4742 29.2808C23.1985 29.0003 22.8713 28.7778 22.5111 28.6259C22.1509 28.4741 21.7649 28.396 21.375 28.396ZM35.625 28.396C34.8376 28.396 34.0825 28.7143 33.5258 29.2808C32.969 29.8473 32.6562 30.6157 32.6562 31.4168C32.6562 32.218 32.969 32.9864 33.5258 33.5529C34.0825 34.1194 34.8376 34.4377 35.625 34.4377C36.4124 34.4377 37.1675 34.1194 37.7242 33.5529C38.281 32.9864 38.5938 32.218 38.5938 31.4168C38.5938 30.6157 38.281 29.8473 37.7242 29.2808C37.1675 28.7143 36.4124 28.396 35.625 28.396ZM28.5 4.8335C25.3811 4.8335 22.2928 5.45859 19.4113 6.67307C16.5298 7.88756 13.9116 9.66767 11.7062 11.9117C7.25222 16.4439 4.75 22.5908 4.75 29.0002C4.75 35.4096 7.25222 41.5564 11.7062 46.0886C13.9116 48.3327 16.5298 50.1128 19.4113 51.3273C22.2928 52.5417 25.3811 53.1668 28.5 53.1668C34.7989 53.1668 40.8398 50.6207 45.2938 46.0886C49.7478 41.5564 52.25 35.4096 52.25 29.0002C52.25 25.8266 51.6357 22.684 50.4421 19.752C49.2486 16.8199 47.4992 14.1558 45.2938 11.9117C43.0884 9.66767 40.4702 7.88756 37.5887 6.67307C34.7072 5.45859 31.6189 4.8335 28.5 4.8335ZM28.5 48.3335C18.0263 48.3335 9.5 39.6577 9.5 29.0002C9.5 28.2993 9.5 27.5985 9.61875 26.9218C15.2238 24.3843 19.665 19.7202 21.9925 13.9443C26.2913 20.131 33.3687 24.1668 41.3725 24.1668C43.225 24.1668 45.0062 23.9493 46.7163 23.5385C47.215 25.2543 47.5 27.091 47.5 29.0002C47.5 39.6577 38.9738 48.3335 28.5 48.3335Z" fill="#3B8FFF"/>
</g>
</svg>
