<svg width="57" height="58" viewBox="0 0 57 58" fill="none" xmlns="http://www.w3.org/2000/svg">
<g id="face-woman">
<path id="Vector" d="M32.6562 31.4168C32.6562 29.7493 33.9862 28.396 35.625 28.396C37.2637 28.396 38.5938 29.7493 38.5938 31.4168C38.5938 33.0843 37.2637 34.4377 35.625 34.4377C33.9862 34.4377 32.6562 33.0843 32.6562 31.4168ZM52.25 29.0002V53.1668H4.75V29.0002C4.75 15.7085 15.4375 4.8335 28.5 4.8335C41.5625 4.8335 52.25 15.7085 52.25 29.0002ZM9.5 29.0002C9.5 39.6577 18.0263 48.3335 28.5 48.3335C38.9738 48.3335 47.5 39.6577 47.5 29.0002C47.5 27.091 47.215 25.2543 46.7163 23.5385C45.0062 23.9493 43.225 24.1668 41.3725 24.1668C33.3687 24.1668 26.2913 20.131 21.9925 13.9443C19.665 19.7202 15.2238 24.3843 9.61875 26.9218C9.5 27.5985 9.5 28.2993 9.5 29.0002ZM21.375 34.4377C23.0138 34.4377 24.3438 33.0843 24.3438 31.4168C24.3438 29.7493 23.0138 28.396 21.375 28.396C19.7362 28.396 18.4062 29.7493 18.4062 31.4168C18.4062 33.0843 19.7362 34.4377 21.375 34.4377Z" fill="#FF7A63"/>
</g>
</svg>
