<svg width="22" height="17" viewBox="0 0 22 17" fill="none" xmlns="http://www.w3.org/2000/svg">
<path d="M12 7C12.86 7 13.6667 7.27333 14.3133 7.74L17.72 4.33333H14.6667V3H20V8.33333H18.6667V5.27333L15.26 8.66667C15.7267 9.33333 16 10.1333 16 11C16 12.0609 15.5786 13.0783 14.8284 13.8284C14.0783 14.5786 13.0609 15 12 15C10.9391 15 9.92172 14.5786 9.17157 13.8284C8.42143 13.0783 8 12.0609 8 11C8 9.93913 8.42143 8.92172 9.17157 8.17157C9.92172 7.42143 10.9391 7 12 7ZM12 8.33333C11.2928 8.33333 10.6145 8.61428 10.1144 9.11438C9.61428 9.61448 9.33333 10.2928 9.33333 11C9.33333 11.7072 9.61428 12.3855 10.1144 12.8856C10.6145 13.3857 11.2928 13.6667 12 13.6667C12.7072 13.6667 13.3855 13.3857 13.8856 12.8856C14.3857 12.3855 14.6667 11.7072 14.6667 11C14.6667 10.2928 14.3857 9.61448 13.8856 9.11438C13.3855 8.61428 12.7072 8.33333 12 8.33333Z" fill="black"/>
<path d="M4 2.66699C5.06087 2.66699 6.07828 3.08842 6.82843 3.83857C7.57857 4.58871 8 5.60613 8 6.66699C8 8.64699 6.56 10.2937 4.66667 10.6137V12.0003H6V13.3337H4.66667V14.667H3.33333V13.3337H2V12.0003H3.33333V10.6137C1.44 10.2937 0 8.64699 0 6.66699C0 5.60613 0.421427 4.58871 1.17157 3.83857C1.92172 3.08842 2.93913 2.66699 4 2.66699ZM4 4.00033C3.29276 4.00033 2.61448 4.28128 2.11438 4.78137C1.61428 5.28147 1.33333 5.95975 1.33333 6.66699C1.33333 7.37424 1.61428 8.05251 2.11438 8.55261C2.61448 9.05271 3.29276 9.33366 4 9.33366C4.70724 9.33366 5.38552 9.05271 5.88562 8.55261C6.38572 8.05251 6.66667 7.37424 6.66667 6.66699C6.66667 5.95975 6.38572 5.28147 5.88562 4.78137C5.38552 4.28128 4.70724 4.00033 4 4.00033Z" fill="black"/>
</svg>
