<svg width="10" height="10" viewBox="0 0 10 10" fill="none" xmlns="http://www.w3.org/2000/svg">
<path id="Vector" d="M9.89131 4.46629H1.94186L6.69985 0.196629C6.77593 0.127809 6.72974 0 6.6292 0H5.42679C5.37381 0 5.32354 0.0196628 5.28414 0.0547752L0.149809 4.66011C0.102784 4.70225 0.0650709 4.75434 0.0392238 4.81286C0.0133768 4.87139 0 4.93497 0 4.9993C0 5.06363 0.0133768 5.12721 0.0392238 5.18573C0.0650709 5.24425 0.102784 5.29635 0.149809 5.33848L5.31403 9.97191C5.33441 9.99017 5.35886 10 5.38468 10H6.62784C6.72838 10 6.77457 9.87079 6.69849 9.80337L1.94186 5.53371H9.89131C9.95109 5.53371 10 5.48315 10 5.42135V4.57865C10 4.51685 9.95109 4.46629 9.89131 4.46629Z" fill="black"/>
</svg>
