<svg width="31" height="25" viewBox="0 0 31 25" fill="none" xmlns="http://www.w3.org/2000/svg">
<path id="Vector" d="M12.3333 0C13.9688 0 15.5374 0.65848 16.6938 1.83058C17.8503 3.00268 18.5 4.5924 18.5 6.25C18.5 7.9076 17.8503 9.49732 16.6938 10.6694C15.5374 11.8415 13.9688 12.5 12.3333 12.5C10.6978 12.5 9.12932 11.8415 7.97284 10.6694C6.81637 9.49732 6.16667 7.9076 6.16667 6.25C6.16667 4.5924 6.81637 3.00268 7.97284 1.83058C9.12932 0.65848 10.6978 0 12.3333 0ZM12.3333 15.625C19.1475 15.625 24.6667 18.4219 24.6667 21.875V25H0V21.875C0 18.4219 5.51917 15.625 12.3333 15.625ZM27.75 12.5V4.6875H30.8333V14.0625H27.75M27.75 20.3125V17.1875H30.8333V20.3125H27.75Z" fill="black"/>
</svg>
