<svg width="30" height="30" viewBox="0 0 30 30" fill="none" xmlns="http://www.w3.org/2000/svg">
<path d="M17.65 12.5H23.75V10.25H19.225L16.725 6.0875C16.35 5.4625 15.675 5.0375 14.9 5.0375C14.675 5.0375 14.475 5.075 14.275 5.1375L7.5 7.25V13.75H9.75V9.1625L12.3875 8.3375L7.5 27.5H9.75L13.3375 17.3625L16.25 21.25V27.5H18.5V19.4875L15.3875 13.8125L16.3 10.225M17.5 4.75C18.75 4.75 19.75 3.75 19.75 2.5C19.75 1.25 18.75 0.25 17.5 0.25C16.25 0.25 15.25 1.25 15.25 2.5C15.25 3.75 16.25 4.75 17.5 4.75Z" fill="black"/>
</svg>
